<svg width="107" height="117" viewBox="0 0 107 117" fill="none" xmlns="http://www.w3.org/2000/svg">
<g filter="url(#filter0_d_2595_7147)">
<path d="M27.5672 41.6179L27.5672 41.6179L27.5706 41.6158L50.1788 27.6208C50.1794 27.6204 50.18 27.6201 50.1805 27.6197C52.09 26.4678 54.4624 26.4205 56.4037 27.4939L56.4056 27.495L80.6474 40.6984C80.6478 40.6986 80.6482 40.6989 80.6486 40.6991C82.577 41.766 83.7908 43.7793 83.8368 45.9897C83.8368 45.9906 83.8368 45.9914 83.8369 45.9923L83.9822 71.8156L83.9823 71.8209C84.0273 74.0249 82.9075 76.091 81.0335 77.2608L58.0816 91.5879C56.1608 92.7869 53.7481 92.8534 51.7772 91.7636L28.077 78.6584C26.0631 77.5448 24.5228 75.4348 24.5375 73.1946H24.5376V73.1922L24.5377 46.9385C24.5377 46.9381 24.5377 46.9378 24.5377 46.9374C24.5524 44.7616 25.7007 42.7447 27.5672 41.6179Z" stroke="url(#paint0_linear_2595_7147)" stroke-opacity="0.5" stroke-width="0.707692" shape-rendering="crispEdges"/>
</g>
<g filter="url(#filter1_d_2595_7147)">
<path d="M21.8384 37.562L21.8385 37.562L21.8418 37.5599L48.9724 20.7356C48.9729 20.7353 48.9735 20.735 48.974 20.7346C51.2869 19.3366 54.1608 19.279 56.5126 20.5818L56.5145 20.5829L85.605 36.4553C85.6052 36.4554 85.6054 36.4555 85.6056 36.4556C87.9425 37.7504 89.4135 40.1945 89.4691 42.8778C89.4691 42.8787 89.4691 42.8796 89.4691 42.8805L89.6435 73.9245L89.6436 73.9297C89.6981 76.6048 88.3414 79.1121 86.0715 80.5315L58.5293 97.7544C56.2027 99.2093 53.2803 99.2901 50.8928 97.9675L22.4525 82.2135C20.0195 80.8657 18.1505 78.3081 18.1684 75.5821H18.1684V75.5797L18.1686 44.0189C18.1686 44.0186 18.1686 44.0182 18.1686 44.0178C18.1863 41.3769 19.5776 38.9293 21.8384 37.562Z" stroke="url(#paint1_linear_2595_7147)" stroke-opacity="0.15" stroke-width="0.707692" shape-rendering="crispEdges"/>
</g>
<g filter="url(#filter2_d_2595_7147)">
<path d="M16.7421 33.8959L16.7421 33.8959L16.7454 33.8938L47.8663 14.5382C47.8668 14.5378 47.8674 14.5375 47.8679 14.5372C50.5367 12.9192 53.8528 12.8524 56.5667 14.3602L56.5686 14.3613L89.9374 32.6217C89.9379 32.622 89.9383 32.6223 89.9388 32.6225C92.6352 34.1212 94.3329 36.9503 94.3969 40.0566C94.3969 40.0574 94.397 40.0583 94.397 40.0592L94.597 75.7744L94.5972 75.7796C94.6601 78.8763 93.0941 81.7784 90.4749 83.4211L58.8823 103.235C56.1979 104.919 52.8258 105.012 50.0708 103.482L17.4481 85.3575C14.6454 83.8004 12.4861 80.8423 12.5068 77.6813V77.679L12.507 41.3697C12.507 41.3693 12.507 41.369 12.507 41.3686C12.5274 38.3113 14.1332 35.4783 16.7421 33.8959Z" stroke="url(#paint2_linear_2595_7147)" stroke-opacity="0.1" stroke-width="0.707692" shape-rendering="crispEdges"/>
</g>
<g filter="url(#filter3_d_2595_7147)">
<path d="M33.4297 45.3708L51.2529 34.2028C52.8432 33.231 54.8203 33.1904 56.4387 34.0962L75.5484 44.6318C77.157 45.5321 78.1688 47.2318 78.2064 49.0969L78.321 69.7048C78.3585 71.563 77.4258 73.3045 75.8655 74.2904L57.774 85.7216C56.1746 86.7322 54.1646 86.7888 52.522 85.8694L33.8407 75.4131C32.1884 74.4883 30.8944 72.7211 30.9068 70.8048L30.9069 49.8558C30.9188 48.021 31.8752 46.3206 33.4297 45.3708Z" fill="#18181B"/>
<path d="M33.7987 45.9746L33.7987 45.9747L33.8054 45.9704L51.6252 34.8047C52.998 33.9674 54.7003 33.9342 56.0931 34.7138L56.097 34.716L75.2028 45.2493C75.2034 45.2497 75.2041 45.25 75.2047 45.2504C76.5884 46.0257 77.4645 47.4913 77.4988 49.1064L77.6134 69.7087H77.6133L77.6135 69.7191C77.646 71.3316 76.8365 72.8398 75.4875 73.6922L57.396 85.1233C56.0146 85.9962 54.2823 86.0436 52.8677 85.2518L34.1863 74.7956C32.7003 73.9638 31.6041 72.407 31.6145 70.8093L31.6145 70.8048L31.6146 49.8604C31.6146 49.8596 31.6146 49.8589 31.6146 49.8582C31.6257 48.2669 32.4557 46.7953 33.7987 45.9746Z" stroke="url(#paint3_linear_2595_7147)" stroke-width="1.41538"/>
</g>
<path d="M51.7793 65.8911C51.2718 67.4326 50.0499 68.5605 48.2547 69.162C47.4472 69.4285 46.6047 69.5742 45.7546 69.5944C45.5551 69.5944 45.3639 69.5151 45.2229 69.3741C45.0819 69.2331 45.0026 69.0419 45.0026 68.8424C45.0228 67.9923 45.1685 67.1498 45.435 66.3423C46.0365 64.5471 47.1644 63.3252 48.7059 62.8177C48.8014 62.7757 48.9046 62.7541 49.0089 62.7542C49.1132 62.7543 49.2164 62.7761 49.3118 62.8182C49.4072 62.8603 49.4929 62.9219 49.5632 62.9989C49.6336 63.0759 49.6872 63.1667 49.7206 63.2655C49.754 63.3643 49.7664 63.469 49.7571 63.5729C49.7479 63.6769 49.7171 63.7777 49.6667 63.8691C49.6164 63.9604 49.5476 64.0403 49.4647 64.1036C49.3818 64.167 49.2866 64.2123 49.1852 64.2369C47.3336 64.8572 46.7603 66.8592 46.5817 68.0153C47.7378 67.8367 49.7397 67.2634 50.3601 65.4118C50.4357 65.2397 50.573 65.1021 50.7449 65.0262C50.9169 64.9503 51.1111 64.9416 51.2892 65.0017C51.4673 65.0619 51.6164 65.1866 51.7071 65.3512C51.7978 65.5158 51.8236 65.7084 51.7793 65.8911ZM61.169 58.7385L60.3325 59.5844V65.346C60.3298 65.7442 60.1712 66.1254 59.8907 66.4081L56.8454 69.444C56.7073 69.5854 56.542 69.6974 56.3595 69.7734C56.177 69.8493 55.981 69.8875 55.7833 69.8857C55.6366 69.8869 55.4907 69.8647 55.351 69.8199C55.0893 69.7416 54.854 69.5934 54.6702 69.3914C54.4864 69.1894 54.3611 68.9411 54.3077 68.6733L53.5652 64.9606L49.6364 61.0318L45.9237 60.2893C45.6559 60.2359 45.4076 60.1106 45.2056 59.9268C45.0036 59.743 44.8554 59.5077 44.7771 59.246C44.6981 58.9863 44.6913 58.7099 44.7576 58.4466C44.8238 58.1833 44.9605 57.943 45.153 57.7516L48.1889 54.7063C48.4716 54.4258 48.8528 54.2672 49.251 54.2645H55.0126L55.8585 53.428C58.5466 50.7399 61.3006 50.8151 62.3627 50.9749C62.6811 51.0189 62.9765 51.1658 63.2038 51.3931C63.4312 51.6205 63.5781 51.9159 63.6221 52.2343C63.7819 53.2964 63.8571 56.0503 61.169 58.7385ZM46.2151 58.8137L49.7585 59.5186L53.5088 55.7684H49.251L46.2151 58.8137ZM51.0744 60.3363L54.2607 63.5226L60.1069 57.6764C60.84 56.9433 62.513 54.9695 62.1371 52.4599C59.6275 52.084 57.6537 53.757 56.9206 54.4901L51.0744 60.3363ZM58.8286 61.0882L55.0784 64.8384L55.7833 68.3819L58.8286 65.346V61.0882Z" fill="url(#paint4_linear_2595_7147)"/>
<defs>
<filter id="filter0_d_2595_7147" x="11.8269" y="14.0105" width="84.8671" height="91.2368" filterUnits="userSpaceOnUse" color-interpolation-filters="sRGB">
<feFlood flood-opacity="0" result="BackgroundImageFix"/>
<feColorMatrix in="SourceAlpha" type="matrix" values="0 0 0 0 0 0 0 0 0 0 0 0 0 0 0 0 0 0 127 0" result="hardAlpha"/>
<feOffset/>
<feGaussianBlur stdDeviation="6.17833"/>
<feComposite in2="hardAlpha" operator="out"/>
<feColorMatrix type="matrix" values="0 0 0 0 1 0 0 0 0 1 0 0 0 0 1 0 0 0 1 0"/>
<feBlend mode="normal" in2="BackgroundImageFix" result="effect1_dropShadow_2595_7147"/>
<feBlend mode="normal" in="SourceGraphic" in2="effect1_dropShadow_2595_7147" result="shape"/>
</filter>
<filter id="filter1_d_2595_7147" x="5.866" y="7.34159" width="96.0815" height="103.866" filterUnits="userSpaceOnUse" color-interpolation-filters="sRGB">
<feFlood flood-opacity="0" result="BackgroundImageFix"/>
<feColorMatrix in="SourceAlpha" type="matrix" values="0 0 0 0 0 0 0 0 0 0 0 0 0 0 0 0 0 0 127 0" result="hardAlpha"/>
<feOffset/>
<feGaussianBlur stdDeviation="5.97423"/>
<feComposite in2="hardAlpha" operator="out"/>
<feColorMatrix type="matrix" values="0 0 0 0 1 0 0 0 0 1 0 0 0 0 1 0 0 0 0.57 0"/>
<feBlend mode="normal" in2="BackgroundImageFix" result="effect1_dropShadow_2595_7147"/>
<feBlend mode="normal" in="SourceGraphic" in2="effect1_dropShadow_2595_7147" result="shape"/>
</filter>
<filter id="filter2_d_2595_7147" x="0.204381" y="0.972447" width="106.697" height="115.897" filterUnits="userSpaceOnUse" color-interpolation-filters="sRGB">
<feFlood flood-opacity="0" result="BackgroundImageFix"/>
<feColorMatrix in="SourceAlpha" type="matrix" values="0 0 0 0 0 0 0 0 0 0 0 0 0 0 0 0 0 0 127 0" result="hardAlpha"/>
<feOffset/>
<feGaussianBlur stdDeviation="5.97423"/>
<feComposite in2="hardAlpha" operator="out"/>
<feColorMatrix type="matrix" values="0 0 0 0 1 0 0 0 0 1 0 0 0 0 1 0 0 0 0.3 0"/>
<feBlend mode="normal" in2="BackgroundImageFix" result="effect1_dropShadow_2595_7147"/>
<feBlend mode="normal" in="SourceGraphic" in2="effect1_dropShadow_2595_7147" result="shape"/>
</filter>
<filter id="filter3_d_2595_7147" x="18.9583" y="21.4959" width="71.3124" height="76.9741" filterUnits="userSpaceOnUse" color-interpolation-filters="sRGB">
<feFlood flood-opacity="0" result="BackgroundImageFix"/>
<feColorMatrix in="SourceAlpha" type="matrix" values="0 0 0 0 0 0 0 0 0 0 0 0 0 0 0 0 0 0 127 0" result="hardAlpha"/>
<feOffset/>
<feGaussianBlur stdDeviation="5.97423"/>
<feComposite in2="hardAlpha" operator="out"/>
<feColorMatrix type="matrix" values="0 0 0 0 1 0 0 0 0 1 0 0 0 0 1 0 0 0 0.07 0"/>
<feBlend mode="normal" in2="BackgroundImageFix" result="effect1_dropShadow_2595_7147"/>
<feBlend mode="normal" in="SourceGraphic" in2="effect1_dropShadow_2595_7147" result="shape"/>
</filter>
<linearGradient id="paint0_linear_2595_7147" x1="58.4441" y1="59.6287" x2="84.3374" y2="59.6287" gradientUnits="userSpaceOnUse">
<stop stop-color="#00DC82"/>
<stop offset="0.5" stop-color="#1DE0B1"/>
<stop offset="1" stop-color="#36E4DA"/>
</linearGradient>
<linearGradient id="paint1_linear_2595_7147" x1="58.9271" y1="59.2747" x2="89.9991" y2="59.2747" gradientUnits="userSpaceOnUse">
<stop stop-color="#00DC82"/>
<stop offset="0.5" stop-color="#1DE0B1"/>
<stop offset="1" stop-color="#36E4DA"/>
</linearGradient>
<linearGradient id="paint2_linear_2595_7147" x1="59.3115" y1="58.9209" x2="94.9528" y2="58.9209" gradientUnits="userSpaceOnUse">
<stop stop-color="#00DC82"/>
<stop offset="0.5" stop-color="#1DE0B1"/>
<stop offset="1" stop-color="#36E4DA"/>
</linearGradient>
<linearGradient id="paint3_linear_2595_7147" x1="57.9121" y1="59.9828" x2="78.3221" y2="59.9828" gradientUnits="userSpaceOnUse">
<stop stop-color="#00DC82"/>
<stop offset="0.5" stop-color="#1DE0B1"/>
<stop offset="1" stop-color="#36E4DA"/>
</linearGradient>
<linearGradient id="paint4_linear_2595_7147" x1="55.5193" y1="60.398" x2="63.6868" y2="60.398" gradientUnits="userSpaceOnUse">
<stop stop-color="#00DC82"/>
<stop offset="0.5" stop-color="#1DE0B1"/>
<stop offset="1" stop-color="#36E4DA"/>
</linearGradient>
</defs>
</svg>
