<svg width="84" height="94" viewBox="0 0 84 94" fill="none" xmlns="http://www.w3.org/2000/svg">
<path d="M37.7463 14.9432L15.1925 28.8302C13.2256 30.0114 12.0153 32.1257 12.0002 34.4073L12.0001 60.4569M37.7463 14.9432C39.7587 13.7348 42.2605 13.6842 44.3085 14.8106M37.7463 14.9432C39.7488 13.7407 42.2613 13.6847 44.3085 14.8106M12.0001 60.4569C11.9844 62.8399 13.6218 65.0373 15.7126 66.1873M12.0001 60.4569C11.9844 62.8279 13.6227 65.0377 15.7126 66.1873M15.7126 66.1873L39.3522 79.1894M39.3522 79.1894C41.4308 80.3326 43.9742 80.2623 45.9982 79.0056M39.3522 79.1894C41.43 80.3322 43.9844 80.256 45.9982 79.0056M45.9982 79.0056L68.8914 64.7913M68.8914 64.7913C70.8645 63.5661 72.046 61.3979 71.9986 59.0891M68.8914 64.7913C70.8658 63.5653 72.046 61.3997 71.9986 59.0891M71.9986 59.0891L71.8536 33.4636M71.8536 33.4636C71.806 31.1445 70.5256 29.0309 68.4902 27.9113M71.8536 33.4636C71.8062 31.1558 70.5248 29.0304 68.4902 27.9113M68.4902 27.9113L44.3085 14.8106" stroke="url(#paint0_linear_2703_4066)"/>
<path d="M36.8956 9.12895L9.83106 25.7514C7.47068 27.1652 6.01836 29.696 6.00027 32.4269L6.00014 63.6075M36.8956 9.12895C39.3104 7.68252 42.3126 7.62203 44.7702 8.9703M36.8956 9.12895C39.2985 7.68965 42.3136 7.62258 44.7702 8.9703M6.00014 63.6075C5.98124 66.4598 7.94619 69.0901 10.4551 70.4666M6.00014 63.6075C5.98133 66.4455 7.9472 69.0906 10.4551 70.4666M10.4551 70.4666L38.8227 86.0297M38.8227 86.0297C41.317 87.3982 44.3691 87.314 46.7978 85.8098M38.8227 86.0297C41.316 87.3976 44.3812 87.3065 46.7978 85.8098M46.7978 85.8098L74.2696 68.7956M74.2696 68.7956C76.6374 67.3292 78.0552 64.7339 77.9983 61.9703M74.2696 68.7956C76.639 67.3282 78.0553 64.7361 77.9983 61.9703M77.9983 61.9703L77.8243 31.2974M77.8243 31.2974C77.7672 28.5214 76.2307 25.9915 73.7882 24.6514M77.8243 31.2974C77.7674 28.535 76.2298 25.9909 73.7882 24.6514M73.7882 24.6514L44.7702 8.9703" stroke="url(#paint1_linear_2703_4066)" stroke-opacity="0.3"/>
<path d="M36.1867 2.31473L5.36315 21.6725C2.67494 23.3189 1.02091 26.2662 1.0003 29.4465L1.00015 65.7581M36.1867 2.31473C38.9369 0.630272 42.356 0.559833 45.1549 2.12996M36.1867 2.31473C38.9233 0.638576 42.3572 0.560467 45.1549 2.12996M1.00015 65.7581C0.978629 69.0798 3.21649 72.1429 6.07392 73.7459M1.00015 65.7581C0.978736 69.0631 3.21764 72.1435 6.07392 73.7459M6.07392 73.7459L38.3814 91.87M38.3814 91.87C41.2221 93.4637 44.6981 93.3657 47.4642 91.6139M38.3814 91.87C41.221 93.463 44.712 93.3569 47.4642 91.6139M47.4642 91.6139L78.7515 71.7999M78.7515 71.7999C81.4481 70.0922 83.0629 67.0698 82.9981 63.8515M78.7515 71.7999C81.45 70.091 83.0629 67.0724 82.9981 63.8515M82.9981 63.8515L82.7999 28.1311M82.7999 28.1311C82.7348 24.8983 80.985 21.9521 78.2032 20.3915M82.7999 28.1311C82.7351 24.9142 80.9839 21.9515 78.2032 20.3915M78.2032 20.3915L45.1549 2.12996" stroke="url(#paint2_linear_2703_4066)" stroke-opacity="0.25"/>
<g filter="url(#filter0_d_2703_4066)">
<path d="M21.5472 33.3806L38.4626 22.6497C39.9719 21.7159 41.8482 21.6769 43.3842 22.5473L61.5204 32.6706C63.047 33.5356 64.0073 35.1689 64.043 36.961L64.1518 56.7625C64.1874 58.548 63.3022 60.2214 61.8214 61.1687L44.6515 72.1525C43.1335 73.1236 41.226 73.1779 39.667 72.2945L21.9373 62.2474C20.3692 61.3588 19.1411 59.6608 19.1529 57.8194L19.153 37.6902C19.1643 35.9272 20.072 34.2934 21.5472 33.3806Z" fill="white"/>
<path d="M38.4626 22.6497L21.5472 33.3806C20.072 34.2934 19.1643 35.9272 19.153 37.6902L19.1529 57.8194M38.4626 22.6497C39.9719 21.7159 41.8482 21.6769 43.3842 22.5473M38.4626 22.6497C39.9644 21.7205 41.8488 21.6772 43.3842 22.5473M19.1529 57.8194C19.1411 59.6608 20.3692 61.3588 21.9373 62.2474M19.1529 57.8194C19.1412 59.6515 20.3698 61.3592 21.9373 62.2474M21.9373 62.2474L39.667 72.2945M39.667 72.2945C41.226 73.1779 43.1335 73.1236 44.6515 72.1525M39.667 72.2945C41.2253 73.1776 43.1411 73.1187 44.6515 72.1525M44.6515 72.1525L61.8214 61.1687M61.8214 61.1687C63.3012 60.222 64.1873 58.5466 64.1518 56.7625M61.8214 61.1687C63.3022 60.2214 64.1874 58.548 64.1518 56.7625M64.1518 56.7625L64.043 36.961M64.043 36.961C64.0073 35.1689 63.047 33.5356 61.5204 32.6706M64.043 36.961C64.0075 35.1777 63.0464 33.5353 61.5204 32.6706M61.5204 32.6706L43.3842 22.5473" stroke="url(#paint3_linear_2703_4066)" stroke-width="2"/>
</g>
<rect width="24" height="24" transform="translate(30.1528 35.9209)" fill="white"/>
<path d="M39.6778 53.4612C39.1715 54.9987 37.9528 56.1237 36.1621 56.7237C35.3567 56.9896 34.5164 57.1349 33.6684 57.155C33.4695 57.155 33.2787 57.076 33.1381 56.9353C32.9974 56.7947 32.9184 56.6039 32.9184 56.405C32.9385 55.557 33.0838 54.7167 33.3496 53.9112C33.9496 52.1206 35.0746 50.9018 36.6121 50.3956C36.7074 50.3538 36.8103 50.3322 36.9144 50.3323C37.0185 50.3324 37.1213 50.3541 37.2165 50.3962C37.3117 50.4382 37.3971 50.4995 37.4673 50.5763C37.5375 50.6532 37.591 50.7437 37.6243 50.8423C37.6576 50.9409 37.67 51.0453 37.6607 51.149C37.6515 51.2526 37.6208 51.3532 37.5705 51.4443C37.5203 51.5354 37.4517 51.6151 37.369 51.6783C37.2863 51.7415 37.1914 51.7867 37.0903 51.8112C35.2434 52.43 34.6715 54.4268 34.4934 55.58C35.6465 55.4018 37.6434 54.83 38.2621 52.9831C38.3375 52.8114 38.4745 52.6742 38.646 52.5985C38.8175 52.5228 39.0112 52.5141 39.1888 52.5741C39.3665 52.6341 39.5152 52.7584 39.6057 52.9226C39.6962 53.0868 39.7219 53.279 39.6778 53.4612V53.4612ZM49.0434 46.3268L48.209 47.1706V52.9175C48.2063 53.3146 48.0481 53.6949 47.7684 53.9768L44.7309 57.005C44.5931 57.146 44.4283 57.2578 44.2462 57.3335C44.0642 57.4092 43.8687 57.4474 43.6715 57.4456C43.5252 57.4468 43.3796 57.4246 43.2403 57.38C42.9793 57.3018 42.7446 57.154 42.5612 56.9525C42.3779 56.751 42.2529 56.5034 42.1996 56.2362L41.459 52.5331L37.5403 48.6143L33.8371 47.8737C33.57 47.8205 33.3223 47.6955 33.1208 47.5121C32.9193 47.3288 32.7716 47.0941 32.6934 46.8331C32.6146 46.574 32.6079 46.2983 32.6739 46.0357C32.74 45.7731 32.8764 45.5334 33.0684 45.3425L36.0965 42.305C36.3784 42.0252 36.7587 41.8671 37.1559 41.8643H42.9028L43.7465 41.03C46.4278 38.3487 49.1746 38.4237 50.234 38.5831C50.5517 38.6271 50.8463 38.7735 51.0731 39.0003C51.2998 39.2271 51.4463 39.5217 51.4903 39.8393C51.6496 40.8987 51.7246 43.6456 49.0434 46.3268V46.3268ZM34.1278 46.4018L37.6621 47.105L41.4028 43.3643H37.1559L34.1278 46.4018ZM38.9746 47.9206L42.1528 51.0987L47.984 45.2675C48.7153 44.5362 50.384 42.5675 50.009 40.0643C47.5059 39.6893 45.5371 41.3581 44.8059 42.0893L38.9746 47.9206ZM46.709 48.6706L42.9684 52.4112L43.6715 55.9456L46.709 52.9175V48.6706Z" fill="url(#paint4_linear_2703_4066)"/>
<defs>
<filter id="filter0_d_2703_4066" x="6.20438" y="8.97245" width="70.8969" height="76.8969" filterUnits="userSpaceOnUse" color-interpolation-filters="sRGB">
<feFlood flood-opacity="0" result="BackgroundImageFix"/>
<feColorMatrix in="SourceAlpha" type="matrix" values="0 0 0 0 0 0 0 0 0 0 0 0 0 0 0 0 0 0 127 0" result="hardAlpha"/>
<feOffset/>
<feGaussianBlur stdDeviation="5.97423"/>
<feComposite in2="hardAlpha" operator="out"/>
<feColorMatrix type="matrix" values="0 0 0 0 1 0 0 0 0 1 0 0 0 0 1 0 0 0 0.07 0"/>
<feBlend mode="normal" in2="BackgroundImageFix" result="effect1_dropShadow_2703_4066"/>
<feBlend mode="normal" in="SourceGraphic" in2="effect1_dropShadow_2703_4066" result="shape"/>
</filter>
<linearGradient id="paint0_linear_2703_4066" x1="46.1729" y1="47" x2="72" y2="47" gradientUnits="userSpaceOnUse">
<stop stop-color="#00DC82"/>
<stop offset="0.5" stop-color="#1DE0B1"/>
<stop offset="1" stop-color="#36E4DA"/>
</linearGradient>
<linearGradient id="paint1_linear_2703_4066" x1="47.0075" y1="47.5" x2="78" y2="47.5" gradientUnits="userSpaceOnUse">
<stop stop-color="#00DC82"/>
<stop offset="0.5" stop-color="#1DE0B1"/>
<stop offset="1" stop-color="#36E4DA"/>
</linearGradient>
<linearGradient id="paint2_linear_2703_4066" x1="47.703" y1="47" x2="83" y2="47" gradientUnits="userSpaceOnUse">
<stop stop-color="#00DC82"/>
<stop offset="0.5" stop-color="#1DE0B1"/>
<stop offset="1" stop-color="#36E4DA"/>
</linearGradient>
<linearGradient id="paint3_linear_2703_4066" x1="44.7825" y1="47.4209" x2="64.1528" y2="47.4209" gradientUnits="userSpaceOnUse">
<stop stop-color="#00DC82"/>
<stop offset="0.5" stop-color="#1DE0B1"/>
<stop offset="1" stop-color="#36E4DA"/>
</linearGradient>
<linearGradient id="paint4_linear_2703_4066" x1="43.4081" y1="47.9821" x2="51.5548" y2="47.9821" gradientUnits="userSpaceOnUse">
<stop stop-color="#00DC82"/>
<stop offset="0.5" stop-color="#1DE0B1"/>
<stop offset="1" stop-color="#36E4DA"/>
</linearGradient>
</defs>
</svg>
