<svg width="84" height="94" viewBox="0 0 84 94" fill="none" xmlns="http://www.w3.org/2000/svg">
<path d="M37.7463 14.9432L15.1925 28.8302C13.2256 30.0114 12.0153 32.1257 12.0002 34.4073L12.0001 60.4569M37.7463 14.9432C39.7587 13.7348 42.2605 13.6842 44.3085 14.8106M37.7463 14.9432C39.7488 13.7407 42.2613 13.6847 44.3085 14.8106M12.0001 60.4569C11.9844 62.8399 13.6218 65.0373 15.7126 66.1873M12.0001 60.4569C11.9844 62.8279 13.6227 65.0377 15.7126 66.1873M15.7126 66.1873L39.3522 79.1894M39.3522 79.1894C41.4308 80.3326 43.9742 80.2623 45.9982 79.0056M39.3522 79.1894C41.43 80.3322 43.9844 80.256 45.9982 79.0056M45.9982 79.0056L68.8914 64.7913M68.8914 64.7913C70.8645 63.5661 72.046 61.3979 71.9986 59.0891M68.8914 64.7913C70.8658 63.5653 72.046 61.3997 71.9986 59.0891M71.9986 59.0891L71.8536 33.4636M71.8536 33.4636C71.806 31.1445 70.5256 29.0309 68.4902 27.9113M71.8536 33.4636C71.8062 31.1558 70.5248 29.0304 68.4902 27.9113M68.4902 27.9113L44.3085 14.8106" stroke="url(#paint0_linear_2703_3959)"/>
<path d="M36.8956 8.12895L9.83106 24.7514C7.47068 26.1652 6.01836 28.696 6.00027 31.4269L6.00014 62.6075M36.8956 8.12895C39.3104 6.68252 42.3126 6.62203 44.7702 7.9703M36.8956 8.12895C39.2985 6.68965 42.3136 6.62258 44.7702 7.9703M6.00014 62.6075C5.98124 65.4598 7.94619 68.0901 10.4551 69.4666M6.00014 62.6075C5.98133 65.4455 7.9472 68.0906 10.4551 69.4666M10.4551 69.4666L38.8227 85.0297M38.8227 85.0297C41.317 86.3982 44.3691 86.314 46.7978 84.8098M38.8227 85.0297C41.316 86.3976 44.3812 86.3065 46.7978 84.8098M46.7978 84.8098L74.2696 67.7956M74.2696 67.7956C76.6374 66.3292 78.0552 63.7339 77.9983 60.9703M74.2696 67.7956C76.639 66.3282 78.0553 63.7361 77.9983 60.9703M77.9983 60.9703L77.8243 30.2974M77.8243 30.2974C77.7672 27.5214 76.2307 24.9915 73.7882 23.6514M77.8243 30.2974C77.7674 27.535 76.2298 24.9909 73.7882 23.6514M73.7882 23.6514L44.7702 7.9703" stroke="url(#paint1_linear_2703_3959)" stroke-opacity="0.5"/>
<path d="M36.1867 2.31473L5.36315 21.6725C2.67494 23.3189 1.02091 26.2662 1.0003 29.4465L1.00015 65.7581M36.1867 2.31473C38.9369 0.630272 42.356 0.559833 45.1549 2.12996M36.1867 2.31473C38.9233 0.638576 42.3572 0.560467 45.1549 2.12996M1.00015 65.7581C0.978629 69.0798 3.21649 72.1429 6.07392 73.7459M1.00015 65.7581C0.978736 69.0631 3.21764 72.1435 6.07392 73.7459M6.07392 73.7459L38.3814 91.87M38.3814 91.87C41.2221 93.4637 44.6981 93.3657 47.4642 91.6139M38.3814 91.87C41.221 93.463 44.712 93.3569 47.4642 91.6139M47.4642 91.6139L78.7515 71.7999M78.7515 71.7999C81.4481 70.0922 83.0629 67.0698 82.9981 63.8515M78.7515 71.7999C81.45 70.091 83.0629 67.0724 82.9981 63.8515M82.9981 63.8515L82.7999 28.1311M82.7999 28.1311C82.7348 24.8983 80.985 21.9521 78.2032 20.3915M82.7999 28.1311C82.7351 24.9142 80.9839 21.9515 78.2032 20.3915M78.2032 20.3915L45.1549 2.12996" stroke="url(#paint2_linear_2703_3959)" stroke-opacity="0.4"/>
<g filter="url(#filter0_d_2703_3959)">
<path d="M22.3944 33.4597L39.3098 22.7288C40.819 21.795 42.6954 21.756 44.2313 22.6264L62.3676 32.7497C63.8942 33.6147 64.8545 35.248 64.8902 37.0401L64.999 56.8416C65.0345 58.6271 64.1494 60.3005 62.6685 61.2478L45.4987 72.2316C43.9807 73.2027 42.0731 73.257 40.5142 72.3736L22.7845 62.3265C21.2164 61.4379 19.9883 59.7399 20.0001 57.8985L20.0002 37.7693C20.0115 36.0063 20.9192 34.3725 22.3944 33.4597Z" fill="#18181B"/>
<path d="M39.3098 22.7288L22.3944 33.4597C20.9192 34.3725 20.0115 36.0063 20.0002 37.7693L20.0001 57.8985M39.3098 22.7288C40.819 21.795 42.6954 21.756 44.2313 22.6264M39.3098 22.7288C40.8116 21.7996 42.696 21.7563 44.2313 22.6264M20.0001 57.8985C19.9883 59.7399 21.2164 61.4379 22.7845 62.3265M20.0001 57.8985C19.9883 59.7306 21.217 61.4383 22.7845 62.3265M22.7845 62.3265L40.5142 72.3736M40.5142 72.3736C42.0731 73.257 43.9807 73.2027 45.4987 72.2316M40.5142 72.3736C42.0725 73.2567 43.9883 73.1978 45.4987 72.2316M45.4987 72.2316L62.6685 61.2478M62.6685 61.2478C64.1484 60.3011 65.0345 58.6257 64.999 56.8416M62.6685 61.2478C64.1494 60.3005 65.0345 58.6271 64.999 56.8416M64.999 56.8416L64.8902 37.0401M64.8902 37.0401C64.8545 35.248 63.8942 33.6147 62.3676 32.7497M64.8902 37.0401C64.8547 35.2568 63.8936 33.6144 62.3676 32.7497M62.3676 32.7497L44.2313 22.6264" stroke="url(#paint3_linear_2703_3959)" stroke-width="2"/>
</g>
<path d="M40.5249 53.5403C40.0187 55.0778 38.7999 56.2028 37.0093 56.8028C36.2039 57.0687 35.3635 57.214 34.5156 57.2341C34.3167 57.2341 34.1259 57.1551 33.9852 57.0144C33.8446 56.8738 33.7656 56.683 33.7656 56.4841C33.7856 55.6361 33.931 54.7958 34.1968 53.9903C34.7968 52.1997 35.9218 50.9809 37.4593 50.4747C37.5546 50.4329 37.6575 50.4113 37.7616 50.4114C37.8656 50.4115 37.9685 50.4333 38.0637 50.4753C38.1589 50.5173 38.2443 50.5786 38.3145 50.6554C38.3847 50.7323 38.4381 50.8228 38.4714 50.9214C38.5047 51.02 38.5171 51.1244 38.5079 51.2281C38.4986 51.3317 38.4679 51.4323 38.4177 51.5234C38.3675 51.6145 38.2989 51.6942 38.2162 51.7574C38.1335 51.8206 38.0386 51.8658 37.9374 51.8903C36.0906 52.5091 35.5187 54.5059 35.3406 55.6591C36.4937 55.4809 38.4906 54.9091 39.1093 53.0622C39.1847 52.8905 39.3217 52.7533 39.4932 52.6776C39.6647 52.6019 39.8584 52.5932 40.036 52.6532C40.2136 52.7132 40.3624 52.8375 40.4529 53.0017C40.5434 53.166 40.5691 53.3581 40.5249 53.5403V53.5403ZM49.8906 46.4059L49.0562 47.2497V52.9966C49.0535 53.3937 48.8953 53.774 48.6156 54.0559L45.5781 57.0841C45.4403 57.2251 45.2754 57.3369 45.0934 57.4126C44.9113 57.4883 44.7159 57.5265 44.5187 57.5247C44.3724 57.5259 44.2268 57.5037 44.0874 57.4591C43.8265 57.3809 43.5917 57.2331 43.4084 57.0316C43.2251 56.8301 43.1001 56.5825 43.0468 56.3153L42.3062 52.6122L38.3874 48.6934L34.6843 47.9528C34.4171 47.8996 34.1695 47.7746 33.968 47.5912C33.7665 47.4079 33.6187 47.1732 33.5406 46.9122C33.4618 46.6531 33.455 46.3774 33.5211 46.1148C33.5872 45.8522 33.7236 45.6125 33.9156 45.4216L36.9437 42.3841C37.2256 42.1043 37.6059 41.9462 38.0031 41.9434H43.7499L44.5937 41.1091C47.2749 38.4278 50.0218 38.5028 51.0812 38.6622C51.3988 38.7062 51.6935 38.8526 51.9202 39.0794C52.147 39.3062 52.2935 39.6008 52.3374 39.9184C52.4968 40.9778 52.5718 43.7247 49.8906 46.4059V46.4059ZM34.9749 46.4809L38.5093 47.1841L42.2499 43.4434H38.0031L34.9749 46.4809ZM39.8218 47.9997L42.9999 51.1778L48.8312 45.3466C49.5624 44.6153 51.2312 42.6466 50.8562 40.1434C48.3531 39.7684 46.3843 41.4372 45.6531 42.1684L39.8218 47.9997ZM47.5562 48.7497L43.8156 52.4903L44.5187 56.0247L47.5562 52.9966V48.7497Z" fill="url(#paint4_linear_2703_3959)"/>
<defs>
<filter id="filter0_d_2703_3959" x="7.05155" y="9.05155" width="70.8969" height="76.8969" filterUnits="userSpaceOnUse" color-interpolation-filters="sRGB">
<feFlood flood-opacity="0" result="BackgroundImageFix"/>
<feColorMatrix in="SourceAlpha" type="matrix" values="0 0 0 0 0 0 0 0 0 0 0 0 0 0 0 0 0 0 127 0" result="hardAlpha"/>
<feOffset/>
<feGaussianBlur stdDeviation="5.97423"/>
<feComposite in2="hardAlpha" operator="out"/>
<feColorMatrix type="matrix" values="0 0 0 0 1 0 0 0 0 1 0 0 0 0 1 0 0 0 0.07 0"/>
<feBlend mode="normal" in2="BackgroundImageFix" result="effect1_dropShadow_2703_3959"/>
<feBlend mode="normal" in="SourceGraphic" in2="effect1_dropShadow_2703_3959" result="shape"/>
</filter>
<linearGradient id="paint0_linear_2703_3959" x1="46.1729" y1="47" x2="72" y2="47" gradientUnits="userSpaceOnUse">
<stop stop-color="#00DC82"/>
<stop offset="0.5" stop-color="#1DE0B1"/>
<stop offset="1" stop-color="#36E4DA"/>
</linearGradient>
<linearGradient id="paint1_linear_2703_3959" x1="47.0075" y1="46.5" x2="78" y2="46.5" gradientUnits="userSpaceOnUse">
<stop stop-color="#00DC82"/>
<stop offset="0.5" stop-color="#1DE0B1"/>
<stop offset="1" stop-color="#36E4DA"/>
</linearGradient>
<linearGradient id="paint2_linear_2703_3959" x1="47.703" y1="47" x2="83" y2="47" gradientUnits="userSpaceOnUse">
<stop stop-color="#00DC82"/>
<stop offset="0.5" stop-color="#1DE0B1"/>
<stop offset="1" stop-color="#36E4DA"/>
</linearGradient>
<linearGradient id="paint3_linear_2703_3959" x1="45.6297" y1="47.5" x2="65" y2="47.5" gradientUnits="userSpaceOnUse">
<stop stop-color="#00DC82"/>
<stop offset="0.5" stop-color="#1DE0B1"/>
<stop offset="1" stop-color="#36E4DA"/>
</linearGradient>
<linearGradient id="paint4_linear_2703_3959" x1="44.2553" y1="48.0612" x2="52.402" y2="48.0612" gradientUnits="userSpaceOnUse">
<stop stop-color="#00DC82"/>
<stop offset="0.5" stop-color="#1DE0B1"/>
<stop offset="1" stop-color="#36E4DA"/>
</linearGradient>
</defs>
</svg>
