<svg width="84" height="94" viewBox="0 0 84 94" fill="none" xmlns="http://www.w3.org/2000/svg">
<path d="M38.7463 14.9432L16.1925 28.8302C14.2256 30.0114 13.0153 32.1257 13.0002 34.4073L13.0001 60.4569M38.7463 14.9432C40.7587 13.7348 43.2605 13.6842 45.3085 14.8106M38.7463 14.9432C40.7488 13.7407 43.2613 13.6847 45.3085 14.8106M13.0001 60.4569C12.9844 62.8399 14.6218 65.0373 16.7126 66.1873M13.0001 60.4569C12.9844 62.8279 14.6227 65.0377 16.7126 66.1873M16.7126 66.1873L40.3522 79.1894M40.3522 79.1894C42.4308 80.3326 44.9742 80.2623 46.9982 79.0056M40.3522 79.1894C42.43 80.3322 44.9844 80.256 46.9982 79.0056M46.9982 79.0056L69.8914 64.7913M69.8914 64.7913C71.8645 63.5661 73.046 61.3979 72.9986 59.0891M69.8914 64.7913C71.8658 63.5653 73.046 61.3997 72.9986 59.0891M72.9986 59.0891L72.8536 33.4636M72.8536 33.4636C72.806 31.1445 71.5256 29.0309 69.4902 27.9113M72.8536 33.4636C72.8062 31.1558 71.5248 29.0304 69.4902 27.9113M69.4902 27.9113L45.3085 14.8106" stroke="url(#paint0_linear_2703_3959)" stroke-opacity="0.5"/>
<path d="M36.8956 8.12895L9.83106 24.7514C7.47068 26.1652 6.01836 28.696 6.00027 31.4269L6.00014 62.6075M36.8956 8.12895C39.3104 6.68252 42.3126 6.62203 44.7702 7.9703M36.8956 8.12895C39.2985 6.68965 42.3136 6.62258 44.7702 7.9703M6.00014 62.6075C5.98124 65.4598 7.94619 68.0901 10.4551 69.4666M6.00014 62.6075C5.98133 65.4455 7.9472 68.0906 10.4551 69.4666M10.4551 69.4666L38.8227 85.0297M38.8227 85.0297C41.317 86.3982 44.3691 86.314 46.7978 84.8098M38.8227 85.0297C41.316 86.3976 44.3812 86.3065 46.7978 84.8098M46.7978 84.8098L74.2696 67.7956M74.2696 67.7956C76.6374 66.3292 78.0552 63.7339 77.9983 60.9703M74.2696 67.7956C76.639 66.3282 78.0553 63.7361 77.9983 60.9703M77.9983 60.9703L77.8243 30.2974M77.8243 30.2974C77.7672 27.5214 76.2307 24.9915 73.7882 23.6514M77.8243 30.2974C77.7674 27.535 76.2298 24.9909 73.7882 23.6514M73.7882 23.6514L44.7702 7.9703" stroke="url(#paint1_linear_2703_3959)" stroke-opacity="0.15"/>
<path d="M36.1867 2.31473L5.36315 21.6725C2.67494 23.3189 1.02091 26.2662 1.0003 29.4465L1.00015 65.7581M36.1867 2.31473C38.9369 0.630272 42.356 0.559833 45.1549 2.12996M36.1867 2.31473C38.9233 0.638576 42.3572 0.560467 45.1549 2.12996M1.00015 65.7581C0.978629 69.0798 3.21649 72.1429 6.07392 73.7459M1.00015 65.7581C0.978736 69.0631 3.21764 72.1435 6.07392 73.7459M6.07392 73.7459L38.3814 91.87M38.3814 91.87C41.2221 93.4637 44.6981 93.3657 47.4642 91.6139M38.3814 91.87C41.221 93.463 44.712 93.3569 47.4642 91.6139M47.4642 91.6139L78.7515 71.7999M78.7515 71.7999C81.4481 70.0922 83.0629 67.0698 82.9981 63.8515M78.7515 71.7999C81.45 70.091 83.0629 67.0724 82.9981 63.8515M82.9981 63.8515L82.7999 28.1311M82.7999 28.1311C82.7348 24.8983 80.985 21.9521 78.2032 20.3915M82.7999 28.1311C82.7351 24.9142 80.9839 21.9515 78.2032 20.3915M78.2032 20.3915L45.1549 2.12996" stroke="url(#paint2_linear_2703_3959)" stroke-opacity="0.1"/>
<g filter="url(#filter0_d_2703_3959)">
<path d="M21.3944 33.4597L38.3098 22.7288C39.819 21.795 41.6954 21.756 43.2313 22.6264L61.3676 32.7497C62.8942 33.6147 63.8545 35.248 63.8902 37.0401L63.999 56.8416C64.0345 58.6271 63.1494 60.3005 61.6685 61.2478L44.4987 72.2316C42.9807 73.2027 41.0731 73.257 39.5142 72.3736L21.7845 62.3265C20.2164 61.4379 18.9883 59.7399 19.0001 57.8985L19.0002 37.7693C19.0115 36.0063 19.9192 34.3725 21.3944 33.4597Z" fill="#18181B"/>
<path d="M38.3098 22.7288L21.3944 33.4597C19.9192 34.3725 19.0115 36.0063 19.0002 37.7693L19.0001 57.8985M38.3098 22.7288C39.819 21.795 41.6954 21.756 43.2313 22.6264M38.3098 22.7288C39.8116 21.7996 41.696 21.7563 43.2313 22.6264M19.0001 57.8985C18.9883 59.7399 20.2164 61.4379 21.7845 62.3265M19.0001 57.8985C18.9883 59.7306 20.217 61.4383 21.7845 62.3265M21.7845 62.3265L39.5142 72.3736M39.5142 72.3736C41.0731 73.257 42.9807 73.2027 44.4987 72.2316M39.5142 72.3736C41.0725 73.2567 42.9883 73.1978 44.4987 72.2316M44.4987 72.2316L61.6685 61.2478M61.6685 61.2478C63.1484 60.3011 64.0345 58.6257 63.999 56.8416M61.6685 61.2478C63.1494 60.3005 64.0345 58.6271 63.999 56.8416M63.999 56.8416L63.8902 37.0401M63.8902 37.0401C63.8545 35.248 62.8942 33.6147 61.3676 32.7497M63.8902 37.0401C63.8547 35.2568 62.8936 33.6144 61.3676 32.7497M61.3676 32.7497L43.2313 22.6264" stroke="url(#paint3_linear_2703_3959)" stroke-width="2"/>
</g>
<path d="M39.5249 53.5403C39.0187 55.0778 37.7999 56.2028 36.0093 56.8028C35.2039 57.0687 34.3635 57.214 33.5156 57.2341C33.3167 57.2341 33.1259 57.1551 32.9852 57.0144C32.8446 56.8738 32.7656 56.683 32.7656 56.4841C32.7856 55.6361 32.931 54.7958 33.1968 53.9903C33.7968 52.1997 34.9218 50.9809 36.4593 50.4747C36.5546 50.4329 36.6575 50.4113 36.7616 50.4114C36.8656 50.4115 36.9685 50.4333 37.0637 50.4753C37.1589 50.5173 37.2443 50.5786 37.3145 50.6554C37.3847 50.7323 37.4381 50.8228 37.4714 50.9214C37.5047 51.02 37.5171 51.1244 37.5079 51.2281C37.4986 51.3317 37.4679 51.4323 37.4177 51.5234C37.3675 51.6145 37.2989 51.6942 37.2162 51.7574C37.1335 51.8206 37.0386 51.8658 36.9374 51.8903C35.0906 52.5091 34.5187 54.5059 34.3406 55.6591C35.4937 55.4809 37.4906 54.9091 38.1093 53.0622C38.1847 52.8905 38.3217 52.7533 38.4932 52.6776C38.6647 52.6019 38.8584 52.5932 39.036 52.6532C39.2136 52.7132 39.3624 52.8375 39.4529 53.0017C39.5434 53.166 39.5691 53.3581 39.5249 53.5403V53.5403ZM48.8906 46.4059L48.0562 47.2497V52.9966C48.0535 53.3937 47.8953 53.774 47.6156 54.0559L44.5781 57.0841C44.4403 57.2251 44.2754 57.3369 44.0934 57.4126C43.9113 57.4883 43.7159 57.5265 43.5187 57.5247C43.3724 57.5259 43.2268 57.5037 43.0874 57.4591C42.8265 57.3809 42.5917 57.2331 42.4084 57.0316C42.2251 56.8301 42.1001 56.5825 42.0468 56.3153L41.3062 52.6122L37.3874 48.6934L33.6843 47.9528C33.4171 47.8996 33.1695 47.7746 32.968 47.5912C32.7665 47.4079 32.6187 47.1732 32.5406 46.9122C32.4618 46.6531 32.455 46.3774 32.5211 46.1148C32.5872 45.8522 32.7236 45.6125 32.9156 45.4216L35.9437 42.3841C36.2256 42.1043 36.6059 41.9462 37.0031 41.9434H42.7499L43.5937 41.1091C46.2749 38.4278 49.0218 38.5028 50.0812 38.6622C50.3988 38.7062 50.6935 38.8526 50.9202 39.0794C51.147 39.3062 51.2935 39.6008 51.3374 39.9184C51.4968 40.9778 51.5718 43.7247 48.8906 46.4059V46.4059ZM33.9749 46.4809L37.5093 47.1841L41.2499 43.4434H37.0031L33.9749 46.4809ZM38.8218 47.9997L41.9999 51.1778L47.8312 45.3466C48.5624 44.6153 50.2312 42.6466 49.8562 40.1434C47.3531 39.7684 45.3843 41.4372 44.6531 42.1684L38.8218 47.9997ZM46.5562 48.7497L42.8156 52.4903L43.5187 56.0247L46.5562 52.9966V48.7497Z" fill="url(#paint4_linear_2703_3959)"/>
<defs>
<filter id="filter0_d_2703_3959" x="6.05155" y="9.05155" width="70.8969" height="76.8969" filterUnits="userSpaceOnUse" color-interpolation-filters="sRGB">
<feFlood flood-opacity="0" result="BackgroundImageFix"/>
<feColorMatrix in="SourceAlpha" type="matrix" values="0 0 0 0 0 0 0 0 0 0 0 0 0 0 0 0 0 0 127 0" result="hardAlpha"/>
<feOffset/>
<feGaussianBlur stdDeviation="5.97423"/>
<feComposite in2="hardAlpha" operator="out"/>
<feColorMatrix type="matrix" values="0 0 0 0 1 0 0 0 0 1 0 0 0 0 1 0 0 0 0.07 0"/>
<feBlend mode="normal" in2="BackgroundImageFix" result="effect1_dropShadow_2703_3959"/>
<feBlend mode="normal" in="SourceGraphic" in2="effect1_dropShadow_2703_3959" result="shape"/>
</filter>
<linearGradient id="paint0_linear_2703_3959" x1="47.1729" y1="47" x2="73" y2="47" gradientUnits="userSpaceOnUse">
<stop stop-color="#00DC82"/>
<stop offset="0.5" stop-color="#1DE0B1"/>
<stop offset="1" stop-color="#36E4DA"/>
</linearGradient>
<linearGradient id="paint1_linear_2703_3959" x1="47.0075" y1="46.5" x2="78" y2="46.5" gradientUnits="userSpaceOnUse">
<stop stop-color="#00DC82"/>
<stop offset="0.5" stop-color="#1DE0B1"/>
<stop offset="1" stop-color="#36E4DA"/>
</linearGradient>
<linearGradient id="paint2_linear_2703_3959" x1="47.703" y1="47" x2="83" y2="47" gradientUnits="userSpaceOnUse">
<stop stop-color="#00DC82"/>
<stop offset="0.5" stop-color="#1DE0B1"/>
<stop offset="1" stop-color="#36E4DA"/>
</linearGradient>
<linearGradient id="paint3_linear_2703_3959" x1="44.6297" y1="47.5" x2="64" y2="47.5" gradientUnits="userSpaceOnUse">
<stop stop-color="#00DC82"/>
<stop offset="0.5" stop-color="#1DE0B1"/>
<stop offset="1" stop-color="#36E4DA"/>
</linearGradient>
<linearGradient id="paint4_linear_2703_3959" x1="43.2553" y1="48.0612" x2="51.402" y2="48.0612" gradientUnits="userSpaceOnUse">
<stop stop-color="#00DC82"/>
<stop offset="0.5" stop-color="#1DE0B1"/>
<stop offset="1" stop-color="#36E4DA"/>
</linearGradient>
</defs>
</svg>
